<svg width="68" height="77" viewBox="0 0 68 77" fill="none" xmlns="http://www.w3.org/2000/svg">
<path fill-rule="evenodd" clip-rule="evenodd" d="M37.3799 16.577C51.7408 16.577 63.3825 28.2187 63.3825 42.5795C63.3825 56.9403 56.0745 75.0826 43.8806 75.0826C34.637 75.0826 20.73 64.6574 14.5415 53.357C14.2147 53.3946 13.8817 53.4139 13.5442 53.4139C8.75724 53.4139 4.87665 49.5333 4.87665 44.7464C4.87665 40.4272 8.03584 36.846 12.1695 36.1873C15.0176 24.9172 25.2248 16.577 37.3799 16.577ZM11.7954 43.1803L12.6927 46.5291Z" fill="white"/>
<path d="M11.7954 43.1803L12.6927 46.5291M37.3799 16.577C51.7408 16.577 63.3825 28.2187 63.3825 42.5795C63.3825 56.9403 56.0745 75.0826 43.8806 75.0826C34.637 75.0826 20.73 64.6574 14.5415 53.357C14.2147 53.3946 13.8817 53.4139 13.5442 53.4139C8.75724 53.4139 4.87665 49.5333 4.87665 44.7464C4.87665 40.4272 8.03584 36.846 12.1695 36.1873C15.0176 24.9172 25.2248 16.577 37.3799 16.577Z" stroke="black" stroke-width="2.60025" stroke-linecap="round" stroke-linejoin="round"/>
<path d="M48.106 50.7465C51.2841 49.9967 53.1982 48.8996 53.8482 47.455C54.8233 45.2881 48.7597 41.2136 51.2655 38.2458" stroke="black" stroke-width="1.7335" stroke-linecap="round" stroke-linejoin="round"/>
<path d="M39.2217 57.7475C42.1828 58.4698 44.7108 58.8309 46.8057 58.8309C48.9007 58.8309 50.7064 58.4698 52.2229 57.7475" stroke="black" stroke-width="1.7335" stroke-linecap="round" stroke-linejoin="round"/>
<path fill-rule="evenodd" clip-rule="evenodd" d="M41.4968 31.42C42.9329 31.42 44.0971 32.5841 44.0971 34.0202C44.0971 35.4563 42.9329 36.6205 41.4968 36.6205C40.0607 36.6205 38.8966 35.4563 38.8966 34.0202C38.8966 32.5841 40.0607 31.42 41.4968 31.42ZM56.4483 31.42C57.8844 31.42 59.0486 32.5841 59.0486 34.0202C59.0486 35.4563 57.8844 36.6205 56.4483 36.6205C55.0122 36.6205 53.8481 35.4563 53.8481 34.0202C53.8481 32.5841 55.0122 31.42 56.4483 31.42ZM40.6301 32.5034C40.271 32.5034 39.98 32.7944 39.98 33.1535C39.98 33.5125 40.271 33.8035 40.6301 33.8035C40.9891 33.8035 41.2801 33.5125 41.2801 33.1535C41.2801 32.7944 40.9891 32.5034 40.6301 32.5034ZM55.5816 32.5034C55.2226 32.5034 54.9315 32.7944 54.9315 33.1535C54.9315 33.5125 55.2226 33.8035 55.5816 33.8035C55.9406 33.8035 56.2316 33.5125 56.2316 33.1535C56.2316 32.7944 55.9406 32.5034 55.5816 32.5034Z" fill="black"/>
<path d="M62.949 29.4724C61.2467 28.381 59.6608 27.8775 58.1915 27.9619C57.0812 28.0257 55.595 28.6836 53.6844 29.4724C53.2726 29.6424 52.6048 29.8582 51.6813 30.1197" stroke="black" stroke-width="2.60025" stroke-linecap="round" stroke-linejoin="round"/>
<path d="M35.2129 29.4725C36.9152 28.3811 38.5011 27.8776 39.9704 27.962C41.0807 28.0258 42.5669 28.6836 44.4775 29.4725C44.8894 29.6425 45.5571 29.8583 46.4807 30.1198" stroke="black" stroke-width="2.60025" stroke-linecap="round" stroke-linejoin="round"/>
<path fill-rule="evenodd" clip-rule="evenodd" d="M47.8696 34.0433C47.6806 34.3355 47.5493 34.8757 47.4756 35.664H46.5301C46.2149 32.7313 44.1399 31.2135 40.3052 31.1106C37.1009 30.9048 35.1835 32.1911 34.5531 34.9694H33.2924L31.6377 33.3487V30.8019C35.1572 29.9272 38.0464 29.5671 40.3052 29.7214C41.9548 29.8341 43.9087 30.2433 46.2238 30.7628L47.0816 30.9562C47.4792 31.0461 48.1095 31.149 48.9727 31.2649L49.1974 31.2343C49.9462 31.1308 50.5016 31.0381 50.8638 30.9562L51.8267 30.7393C54.0959 30.231 56.0157 29.8324 57.6403 29.7214C59.8765 29.5686 62.7305 29.9201 66.2024 30.7758L66.3078 30.8019V33.3487L64.6531 34.9694H63.3923C62.762 32.1911 60.8446 30.9048 57.6403 31.1106C53.8439 31.2125 51.7723 32.7011 51.4254 35.5764L51.4154 35.664H50.4699L50.4603 35.5667C50.3851 34.8311 50.257 34.3233 50.0759 34.0433C49.8918 33.7586 49.5379 33.5315 49.0144 33.362L48.9727 33.3487C48.4263 33.5195 48.0585 33.7511 47.8696 34.0433Z" fill="black" stroke="black" stroke-width="0.433375" stroke-linecap="round" stroke-linejoin="round"/>
<path d="M34.5532 34.9344C34.5532 38.9476 36.4706 40.9542 40.3053 40.9542C44.14 40.9542 46.215 39.1791 46.5302 35.629" stroke="black" stroke-width="0.650063" stroke-linecap="round" stroke-linejoin="round"/>
<path d="M63.3922 34.9344C63.3922 38.9476 61.4748 40.9542 57.6401 40.9542C53.8053 40.9542 51.7304 39.1791 51.4152 35.629" stroke="black" stroke-width="0.650063" stroke-linecap="round" stroke-linejoin="round"/>
<path fill-rule="evenodd" clip-rule="evenodd" d="M32.6127 30.6617L11.4857 34.1287L11.0523 35.1038L32.6127 32.937V30.6617Z" fill="black" stroke="black" stroke-width="0.433375" stroke-linecap="round" stroke-linejoin="round"/>
<path fill-rule="evenodd" clip-rule="evenodd" d="M9.96911 53.4138L13.5445 54.2805L19.07 62.623L18.9628 62.6379C18.1375 62.7498 17.6315 62.7448 17.4448 62.623C16.0482 61.7114 15.2418 60.1565 13.9778 58.831C12.4496 57.2282 11.1134 55.4225 9.96911 53.4138ZM39.872 2.05884C44.2581 2.54259 48.097 4.62962 51.3372 7.41394L51.6066 7.4653C56.0096 8.32024 60.816 9.26402 62.9492 12.3515C65.6939 16.324 66.8135 20.9828 66.3079 26.3278C64.4725 21.9976 61.6491 18.5271 59.9191 18.1553C62.1808 22.1195 62.9492 25.481 62.9492 26.7612C62.9492 30.9866 61.1434 35.3925 60.349 38.1373C60.349 34.3814 59.5183 28.0974 54.6067 23.4026C48.7581 17.8119 38.4437 20.8023 34.1298 20.8023C30.8009 20.8023 32.6093 25.8814 29.6465 29.6227C30.0859 31.095 30.9878 33.2618 33.263 35.3204C29.7483 35.3185 28.358 33.2121 27.2841 30.971L26.9234 31.031C26.642 31.0784 26.3616 31.1286 26.1026 31.1902C26.4483 32.6058 27.2192 34.2961 28.4152 36.261C26.842 34.9256 25.7079 33.4076 25.0126 31.7069C24.9749 31.7523 24.944 31.801 24.9205 31.8534C22.3597 37.5673 22.3203 39.7625 21.0202 46.4798H19.395L19.2464 46.1386C17.6538 42.4989 16.3671 40.0485 15.3863 38.7874L15.2952 38.6713C13.8055 36.792 12.2398 35.6996 10.9442 36.0788L10.8624 36.1037L10.8044 36.1224C9.85242 36.437 7.71989 37.4577 6.17708 39.3291C5.60816 40.0191 4.99429 41.3193 4.33523 43.2295L4.23393 43.0771L4.08604 42.8521C2.71073 40.7453 1.96315 39.1736 1.84333 38.1373C1.42273 34.5015 0.976575 22.5358 4.87695 17.0103C8.77733 11.4847 10.0674 12.1926 13.1111 11.4847C15.7113 2.74498 24.9423 0.41212 39.872 2.05884Z" fill="black"/>
<path d="M9.96876 53.4137L10.1218 52.782C9.86984 52.7209 9.60548 52.8155 9.44947 53.0227C9.29345 53.2299 9.27547 53.5101 9.40385 53.7355L9.96876 53.4137ZM13.5441 54.2805L14.086 53.9216C13.9955 53.7848 13.8566 53.6873 13.6972 53.6487L13.5441 54.2805ZM19.0696 62.623L19.1594 63.2667C19.3805 63.236 19.5704 63.0938 19.6622 62.8902C19.7541 62.6867 19.7349 62.4502 19.6116 62.264L19.0696 62.623ZM18.9625 62.6379L19.0498 63.282C19.0507 63.2819 19.0514 63.2818 19.0522 63.2817L18.9625 62.6379ZM51.3369 7.41393L50.9133 7.9069C50.9995 7.981 51.1035 8.03117 51.2151 8.0524L51.3369 7.41393ZM51.6063 7.46529L51.7301 6.82714C51.7295 6.82703 51.7288 6.82693 51.7282 6.82682L51.6063 7.46529ZM66.3076 26.3278L65.7091 26.5815C65.8252 26.8556 66.1127 27.0157 66.4068 26.9702C66.701 26.9248 66.9267 26.6854 66.9547 26.389L66.3076 26.3278ZM59.9188 18.1552L60.0554 17.5197C59.8047 17.4658 59.5457 17.5643 59.3943 17.7713C59.2428 17.9781 59.2271 18.2547 59.3541 18.4775L59.9188 18.1552ZM60.3487 38.1373H59.6986C59.6986 38.461 59.9369 38.7354 60.2573 38.7808C60.5779 38.8263 60.883 38.6291 60.973 38.318L60.3487 38.1373ZM29.6462 29.6227L29.1366 29.2191C29.0049 29.3853 28.9626 29.6053 29.0233 29.8086L29.6462 29.6227ZM33.2627 35.3203L33.2624 35.9704C33.5313 35.9705 33.7725 35.8051 33.8692 35.5542C33.966 35.3032 33.8982 35.0187 33.6988 34.8383L33.2627 35.3203ZM27.2837 30.971L27.87 30.6901C27.745 30.4291 27.4624 30.2823 27.1769 30.3297L27.2837 30.971ZM26.9231 31.031L26.8162 30.3898L26.8151 30.39L26.9231 31.031ZM26.1022 31.1902L25.9516 30.5578C25.7833 30.5979 25.6379 30.7034 25.5476 30.8511C25.4574 30.9987 25.4296 31.1763 25.4707 31.3443L26.1022 31.1902ZM28.4148 36.261L27.9941 36.7565C28.2373 36.9631 28.5944 36.9625 28.837 36.7554C29.0795 36.5482 29.136 36.1955 28.9701 35.9231L28.4148 36.261ZM25.0123 31.7069L25.614 31.4608C25.5276 31.2496 25.3367 31.0991 25.1111 31.0644C24.8854 31.0296 24.6581 31.1159 24.5122 31.2915L25.0123 31.7069ZM21.0198 46.4797V47.1298C21.3312 47.1298 21.5988 46.909 21.6581 46.6033L21.0198 46.4797ZM19.3947 46.4797L18.7987 46.7394C18.902 46.9765 19.1361 47.1298 19.3947 47.1298V46.4797ZM19.246 46.1386L19.8419 45.879L19.8416 45.878L19.246 46.1386ZM15.386 38.7873L15.8991 38.3882C15.8984 38.3874 15.8979 38.3867 15.8972 38.3859L15.386 38.7873ZM15.2948 38.6713L15.8061 38.2698C15.8055 38.269 15.8049 38.2683 15.8043 38.2675L15.2948 38.6713ZM10.9439 36.0788L10.7613 35.4548C10.7589 35.4556 10.7566 35.4562 10.7543 35.4569L10.9439 36.0788ZM10.8621 36.1037L10.6726 35.4818C10.6691 35.4829 10.6655 35.4839 10.6621 35.4851L10.8621 36.1037ZM10.8041 36.1224L10.6041 35.5039C10.6028 35.5043 10.6015 35.5047 10.6002 35.5052L10.8041 36.1224ZM4.33488 43.2294L3.79348 43.5894C3.93043 43.7952 4.17214 43.9056 4.41733 43.8742C4.66262 43.8429 4.8688 43.6751 4.9494 43.4415L4.33488 43.2294ZM4.23357 43.0771L3.69045 43.4342C3.69099 43.4352 3.69164 43.4362 3.69229 43.437L4.23357 43.0771ZM4.08569 42.8521L3.54126 43.2073C3.54169 43.208 3.54202 43.2085 3.54245 43.2092L4.08569 42.8521ZM13.1107 11.4847L13.258 12.1179C13.4855 12.0649 13.6672 11.8941 13.7338 11.6701L13.1107 11.4847ZM9.81556 54.0455L13.3909 54.9122L13.6972 53.6487L10.1218 52.782L9.81556 54.0455ZM13.0022 54.6394L18.5277 62.9819L19.6116 62.264L14.086 53.9216L13.0022 54.6394ZM18.9799 61.9791L18.8729 61.994L19.0522 63.2817L19.1594 63.2667L18.9799 61.9791ZM18.8752 61.9937C18.4765 62.0478 18.1785 62.0701 17.9704 62.068C17.8664 62.067 17.7995 62.0599 17.7614 62.053C17.7161 62.0446 17.7445 62.0425 17.7997 62.0785L17.0891 63.1673C17.2379 63.2644 17.3994 63.3085 17.5273 63.3319C17.6624 63.3566 17.8085 63.3666 17.9576 63.368C18.2554 63.371 18.6232 63.3399 19.0498 63.282L18.8752 61.9937ZM17.7997 62.0785C17.1918 61.6818 16.6939 61.133 16.1691 60.4763C15.6618 59.8418 15.106 59.0725 14.4479 58.3823L13.5069 59.2795C14.1129 59.915 14.5923 60.586 15.1534 61.2881C15.6969 61.9681 16.3005 62.6525 17.0891 63.1673L17.7997 62.0785ZM14.4479 58.3823C12.9579 56.8195 11.6529 55.0568 10.5336 53.092L9.40385 53.7355C10.5732 55.7882 11.9407 57.6369 13.5069 59.2795L14.4479 58.3823ZM39.8004 2.70499C44.0204 3.17044 47.7409 5.18097 50.9133 7.9069L51.7607 6.92086C48.4525 4.07814 44.4951 1.91473 39.943 1.41267L39.8004 2.70499ZM51.2151 8.0524L51.4844 8.10387L51.7282 6.82682L51.4588 6.77535L51.2151 8.0524ZM51.4823 8.10343C53.6942 8.53291 55.9454 8.97408 57.908 9.68265C59.8731 10.392 61.4594 11.3393 62.414 12.7209L63.4837 11.9819C62.3051 10.2762 60.4217 9.20778 58.3495 8.45977C56.2749 7.71079 53.9213 7.25261 51.7301 6.82714L51.4823 8.10343ZM62.414 12.7209C65.062 16.5535 66.1533 21.0557 65.6604 26.2666L66.9547 26.389C67.473 20.91 66.3252 16.0946 63.4837 11.9819L62.414 12.7209ZM66.9061 26.0741C65.9678 23.8602 64.7743 21.8587 63.5835 20.3537C62.9882 19.6015 62.3848 18.9619 61.8038 18.4798C61.2339 18.007 60.637 17.6447 60.0554 17.5197L59.7821 18.7909C60.0655 18.8517 60.4702 19.0627 60.9737 19.4804C61.4661 19.8891 62.0075 20.4573 62.5639 21.1605C63.6761 22.5661 64.8121 24.4651 65.7091 26.5815L66.9061 26.0741ZM59.3541 18.4775C61.5832 22.3844 62.2989 25.6332 62.2989 26.7612H63.599C63.599 25.3289 62.7778 21.8547 60.4833 17.8331L59.3541 18.4775ZM62.2989 26.7612C62.2989 28.788 61.8648 30.8803 61.3206 32.8296C61.0491 33.8022 60.7525 34.7315 60.4719 35.5952C60.1932 36.4531 59.9267 37.2573 59.7242 37.9565L60.973 38.318C61.168 37.6449 61.4251 36.869 61.7084 35.9968C61.9899 35.1304 62.2937 34.1795 62.5729 33.1793C63.1302 31.1831 63.599 28.9598 63.599 26.7612H62.2989ZM60.9987 38.1373C60.9987 34.31 60.156 27.808 55.0556 22.9327L54.1572 23.8724C58.88 28.3868 59.6986 34.4527 59.6986 38.1373H60.9987ZM55.0556 22.9327C51.9444 19.9587 47.6877 19.3065 43.7842 19.3559C41.8237 19.3807 39.9186 19.5834 38.2516 19.7766C36.5617 19.9725 35.1597 20.1522 34.1294 20.1522V21.4524C35.2562 21.4524 36.7612 21.2582 38.4013 21.0682C40.0643 20.8753 41.9122 20.6799 43.8007 20.6559C47.595 20.6078 51.4198 21.2557 54.1572 23.8724L55.0556 22.9327ZM34.1294 20.1522C33.6295 20.1522 33.1845 20.248 32.7974 20.4539C32.4084 20.6607 32.1167 20.958 31.895 21.302C31.4717 21.958 31.2763 22.8334 31.1122 23.6866C30.7672 25.4787 30.498 27.4999 29.1366 29.2191L30.1558 30.0262C31.7571 28.004 32.0651 25.615 32.3888 23.9323C32.559 23.048 32.7209 22.4199 32.9874 22.0067C33.1105 21.8161 33.2469 21.6873 33.4078 21.6018C33.5705 21.5152 33.797 21.4524 34.1294 21.4524V20.1522ZM29.0233 29.8086C29.4854 31.3566 30.4376 33.641 32.8265 35.8024L33.6988 34.8383C31.5372 32.8826 30.686 30.8333 30.2692 29.4367L29.0233 29.8086ZM33.263 34.6703C31.6521 34.6694 30.5809 34.1925 29.7863 33.4965C28.9692 32.7807 28.3996 31.7952 27.87 30.6901L26.6975 31.2519C27.2419 32.388 27.9043 33.5762 28.9296 34.4744C29.9774 35.3923 31.3587 35.9694 33.2624 35.9704L33.263 34.6703ZM27.1769 30.3297L26.8162 30.3898L27.0299 31.6723L27.3906 31.6122L27.1769 30.3297ZM26.8151 30.39C26.5322 30.4376 26.2335 30.4907 25.9516 30.5578L26.2528 31.8226C26.4893 31.7662 26.7512 31.7192 27.031 31.6721L26.8151 30.39ZM25.4707 31.3443C25.8388 32.8511 26.6465 34.606 27.8595 36.599L28.9701 35.9231C27.7912 33.9862 27.0572 32.3605 26.7338 31.0359L25.4707 31.3443ZM28.8355 35.7654C27.332 34.489 26.2651 33.0537 25.614 31.4608L24.4106 31.9528C25.1499 33.7614 26.3514 35.3621 27.9941 36.7565L28.8355 35.7654ZM24.5122 31.2915C24.4396 31.3789 24.3763 31.4775 24.327 31.5875L25.5134 32.1192C25.5123 32.1217 25.5113 32.1233 25.5109 32.124C25.5105 32.1247 25.5108 32.1241 25.5123 32.1223L24.5122 31.2915ZM24.327 31.5875C21.7276 37.3875 21.6744 39.6765 20.3816 46.3562L21.6581 46.6033C22.9655 39.8482 22.9913 37.7469 25.5134 32.1192L24.327 31.5875ZM21.0198 45.8297H19.3947V47.1298H21.0198V45.8297ZM19.9906 46.2201L19.8419 45.879L18.65 46.3983L18.7987 46.7394L19.9906 46.2201ZM19.8416 45.878C18.25 42.2405 16.9355 39.7208 15.8991 38.3882L14.8728 39.1864C15.7981 40.3761 17.0569 42.7573 18.6505 46.3991L19.8416 45.878ZM15.8972 38.3859L15.8061 38.2698L14.7836 39.0727L14.8747 39.1888L15.8972 38.3859ZM15.8043 38.2675C15.0343 37.2961 14.2168 36.4911 13.3901 35.9763C12.5665 35.4633 11.6552 35.1933 10.7613 35.4548L11.1264 36.7026C11.528 36.5852 12.0474 36.6717 12.7029 37.0798C13.3555 37.4864 14.0657 38.1671 14.7854 39.0751L15.8043 38.2675ZM10.7543 35.4569L10.6726 35.4818L11.0517 36.7255L11.1333 36.7005L10.7543 35.4569ZM10.6621 35.4851L10.6041 35.5039L11.0042 36.7409L11.0622 36.7222L10.6621 35.4851ZM10.6002 35.5052C9.56973 35.8456 7.31802 36.9227 5.67509 38.9155L6.67825 39.7425C8.12106 37.9925 10.1345 37.0283 11.0081 36.7396L10.6002 35.5052ZM5.67509 38.9155C5.02546 39.7036 4.38081 41.103 3.72035 43.0174L4.9494 43.4415C5.60694 41.5355 6.19027 40.3345 6.67825 39.7425L5.67509 38.9155ZM4.87616 42.8695L4.77497 42.7172L3.69229 43.437L3.79348 43.5894L4.87616 42.8695ZM4.77681 42.72L4.62881 42.495L3.54245 43.2092L3.69045 43.4342L4.77681 42.72ZM4.63001 42.4967C3.95199 41.4579 3.43768 40.5647 3.08058 39.814C2.71979 39.0556 2.5368 38.4781 2.4887 38.0625L1.19724 38.2119C1.26896 38.8327 1.51967 39.5592 1.90646 40.3724C2.29693 41.1932 2.84406 42.1393 3.54126 43.2073L4.63001 42.4967ZM2.4887 38.0625C2.28274 36.2821 2.06767 32.4239 2.3875 28.333C2.70972 24.2122 3.56596 19.9943 5.4077 17.3851L4.34549 16.6354C2.28685 19.5518 1.41598 24.0794 1.09128 28.2317C0.764296 32.414 0.982609 36.3567 1.19724 38.2119L2.4887 38.0625ZM5.4077 17.3851C7.34196 14.6448 8.56408 13.5491 9.6083 13.0209C10.1282 12.7579 10.6315 12.6217 11.2135 12.5076C11.7694 12.3986 12.4902 12.2964 13.258 12.1179L12.9635 10.8516C12.2093 11.027 11.6274 11.1016 10.9636 11.2318C10.3258 11.3567 9.69205 11.5216 9.02151 11.8608C7.68465 12.537 6.3115 13.8501 4.34549 16.6354L5.4077 17.3851ZM13.7338 11.6701C14.9655 7.5303 17.7468 4.90708 22.0696 3.49482C26.4358 2.06826 32.3653 1.88494 39.8004 2.70499L39.943 1.41267C32.4483 0.586005 26.2974 0.745812 21.6658 2.25894C16.9906 3.78637 13.8562 6.69941 12.4876 11.2994L13.7338 11.6701Z" fill="black"/>
</svg>
