<svg width="20" height="20" viewBox="0 0 20 20" fill="none" xmlns="http://www.w3.org/2000/svg">
<path d="M16.5553 16.9237L3.0763 3.44472C3.02745 3.39587 3 3.32961 3 3.26051C3 3.11664 3.11664 3 3.26051 3C3.32961 3 3.39587 3.02745 3.44472 3.0763L16.9237 16.5553C16.9726 16.6041 17 16.6704 17 16.7395C17 16.8834 16.8834 17 16.7395 17C16.6704 17 16.6041 16.9726 16.5553 16.9237Z" stroke="#0c0c0c"/>
<path d="M3.0763 16.5553L16.5553 3.0763C16.6041 3.02745 16.6704 3 16.7395 3C16.8834 3 17 3.11664 17 3.26051C17 3.32961 16.9726 3.39587 16.9237 3.44472L3.44472 16.9237C3.39587 16.9726 3.32961 17 3.26051 17C3.11664 17 3 16.8834 3 16.7395C3 16.6704 3.02745 16.6041 3.0763 16.5553Z" stroke="#0c0c0c"/>
</svg>
