<svg width="32" height="32" viewBox="0 0 32 32" fill="none" xmlns="http://www.w3.org/2000/svg">
<path d="M27.0769 7.66667H4.92308C4.41846 7.66667 4 7.21333 4 6.66667C4 6.12 4.41846 5.66667 4.92308 5.66667H27.0769C27.5815 5.66667 28 6.12 28 6.66667C28 7.21333 27.5815 7.66667 27.0769 7.66667Z" fill="#0c0c0c"/>
<path d="M27.0769 17H4.92308C4.41846 17 4 16.5467 4 16C4 15.4533 4.41846 15 4.92308 15H27.0769C27.5815 15 28 15.4533 28 16C28 16.5467 27.5815 17 27.0769 17Z" fill="#0c0c0c"/>
<path d="M27.0769 26.3333H4.92308C4.41846 26.3333 4 25.88 4 25.3333C4 24.7867 4.41846 24.3333 4.92308 24.3333H27.0769C27.5815 24.3333 28 24.7867 28 25.3333C28 25.88 27.5815 26.3333 27.0769 26.3333Z" fill="#0c0c0c"/>
</svg>
