<svg width="24" height="24" viewBox="0 0 24 24" fill="none" xmlns="http://www.w3.org/2000/svg">
<path d="M20.3077 5.75H3.69231C3.31385 5.75 3 5.41 3 5C3 4.59 3.31385 4.25 3.69231 4.25H20.3077C20.6862 4.25 21 4.59 21 5C21 5.41 20.6862 5.75 20.3077 5.75Z" fill="#362404"/>
<path d="M20.3077 12.75H3.69231C3.31385 12.75 3 12.41 3 12C3 11.59 3.31385 11.25 3.69231 11.25H20.3077C20.6862 11.25 21 11.59 21 12C21 12.41 20.6862 12.75 20.3077 12.75Z" fill="#362404"/>
<path d="M20.3077 19.75H3.69231C3.31385 19.75 3 19.41 3 19C3 18.59 3.31385 18.25 3.69231 18.25H20.3077C20.6862 18.25 21 18.59 21 19C21 19.41 20.6862 19.75 20.3077 19.75Z" fill="#362404"/>
</svg>
