<svg width="20" height="20" viewBox="0 0 20 20" fill="none" xmlns="http://www.w3.org/2000/svg">
<path d="M10.0002 15.4167C12.9917 15.4167 15.4168 12.9915 15.4168 10C15.4168 7.00845 12.9917 4.58333 10.0002 4.58333C7.00862 4.58333 4.5835 7.00845 4.5835 10C4.5835 12.9915 7.00862 15.4167 10.0002 15.4167Z" stroke="#0c0c0c" stroke-width="1.5" stroke-linecap="round" stroke-linejoin="round"/>
<path d="M15.9498 15.95L15.8415 15.8417M15.8415 4.15834L15.9498 4.05001L15.8415 4.15834ZM4.04984 15.95L4.15817 15.8417L4.04984 15.95ZM9.99984 1.73334V1.66667V1.73334ZM9.99984 18.3333V18.2667V18.3333ZM1.73317 10H1.6665H1.73317ZM18.3332 10H18.2665H18.3332ZM4.15817 4.15834L4.04984 4.05001L4.15817 4.15834Z" stroke="#0c0c0c" stroke-width="2" stroke-linecap="round" stroke-linejoin="round"/>
</svg>
